<svg xmlns="http://www.w3.org/2000/svg" xmlns:xlink="http://www.w3.org/1999/xlink" width="59cm" height="17cm" viewBox="-194 128 1179 330"><rect width="806" height="327" x="-8" y="130" fill="none" fill-opacity="0" stroke="#000" stroke-width="2"/><g><rect width="159" height="104" x="4.5" y="189" fill="#fff"/><rect width="159" height="104" x="4.5" y="189" fill="none" fill-opacity="0" stroke="brown" stroke-width="2"/></g><g><rect width="94" height="77" x="49.5" y="204" fill="#fff"/><rect width="94" height="77" x="49.5" y="204" fill="none" fill-opacity="0" stroke="#00f" stroke-width="2"/></g><text x="60" y="224" fill="#00f" font-family="sanserif" font-size="12.8" font-style="normal" font-weight="normal" text-anchor="start"><tspan x="60" y="224">sink</tspan> <tspan x="60" y="240">crop</tspan> <tspan x="60" y="256">selection</tspan></text><text x="8.538" y="157.914" fill="brown" font-family="sanserif" font-size="12.8" font-style="normal" font-weight="normal" text-anchor="start"><tspan x="8.538" y="157.914">sink media</tspan> <tspan x="8.538" y="173.914">bus format</tspan></text><g><rect width="165.2" height="172.478" x="333.644" y="185.65" fill="#fff"/><rect width="165.2" height="172.478" x="333.644" y="185.65" fill="none" fill-opacity="0" stroke="#0f0" stroke-width="2"/></g><line x1="333.644" x2="49.5" y1="358.128" y2="281" fill="none" fill-opacity="0" stroke="#e60505" stroke-dasharray="4" stroke-width="2"/><line x1="333.644" x2="49.5" y1="185.65" y2="204" fill="none" fill-opacity="0" stroke="#e60505" stroke-dasharray="4" stroke-width="2"/><line x1="498.844" x2="143.5" y1="358.128" y2="281" fill="none" fill-opacity="0" stroke="#e60505" stroke-dasharray="4" stroke-width="2"/><line x1="498.844" x2="143.5" y1="185.65" y2="204" fill="none" fill-opacity="0" stroke="#e60505" stroke-dasharray="4" stroke-width="2"/><text x="334.704" y="149.442" fill="#0f0" font-family="sanserif" font-size="12.8" font-style="normal" font-weight="normal" text-anchor="start"><tspan x="334.704" y="149.442">sink compose</tspan> <tspan x="334.704" y="165.442">selection (scaling)</tspan></text><g><rect width="100.186" height="71.452" x="382.322" y="199.565" fill="#fff"/><rect width="100.186" height="71.452" x="382.322" y="199.565" fill="none" fill-opacity="0" stroke="#a020f0" stroke-width="2"/></g><text x="543.322" y="149.442" fill="#a020f0" font-family="sanserif" font-size="12.8" font-style="normal" font-weight="normal" text-anchor="start"><tspan x="543.322" y="149.442">source</tspan> <tspan x="543.322" y="165.442">crop</tspan> <tspan x="543.322" y="181.442">selection</tspan></text><text x="691.5" y="157.128" fill="#8b6914" font-family="sanserif" font-size="12.8" font-style="normal" font-weight="normal" text-anchor="start"><tspan x="691.5" y="157.128">source media</tspan> <tspan x="691.5" y="173.128">bus format</tspan></text><g><rect width="100.186" height="71.452" x="690.488" y="225.834" fill="#fff"/><rect width="100.186" height="71.452" x="690.488" y="225.834" fill="none" fill-opacity="0" stroke="#8b6914" stroke-width="2"/></g><line x1="690.488" x2="382.322" y1="297.286" y2="271.018" fill="none" fill-opacity="0" stroke="#e60505" stroke-dasharray="4" stroke-width="2"/><line x1="690.488" x2="382.322" y1="225.834" y2="199.565" fill="none" fill-opacity="0" stroke="#e60505" stroke-dasharray="4" stroke-width="2"/><line x1="790.674" x2="482.508" y1="297.286" y2="271.018" fill="none" fill-opacity="0" stroke="#e60505" stroke-dasharray="4" stroke-width="2"/><line x1="790.674" x2="482.508" y1="225.834" y2="199.565" fill="none" fill-opacity="0" stroke="#e60505" stroke-dasharray="4" stroke-width="2"/><g><ellipse cx="808.1" cy="249.984" fill="#fff" rx="8.5" ry="8.5"/><ellipse cx="808.1" cy="249.984" fill="none" fill-opacity="0" stroke="#000" stroke-width="2" rx="8.5" ry="8.5"/><ellipse cx="808.1" cy="249.984" fill="none" fill-opacity="0" stroke="#000" stroke-width="2" rx="8.5" ry="8.5"/></g><g><line x1="816.6" x2="972.934" y1="249.984" y2="250.012" fill="none" fill-opacity="0" stroke="#000" stroke-width="2"/><polygon fill="#000" points="980.434 250.014 970.433 255.012 972.934 250.012 970.435 245.012"/><polygon fill="none" fill-opacity="0" stroke="#000" stroke-width="2" points="980.434 250.014 970.433 255.012 972.934 250.012 970.435 245.012"/></g><text x="841.908" y="239.8" fill="#000" font-family="sanserif" font-size="12.8" font-style="normal" font-weight="normal" text-anchor="start"><tspan x="841.908" y="239.8">pad 1 (source)</tspan></text><g><ellipse cx="-20.398" cy="241.512" fill="#fff" rx="8.5" ry="8.5"/><ellipse cx="-20.398" cy="241.512" fill="none" fill-opacity="0" stroke="#000" stroke-width="2" rx="8.5" ry="8.5"/><ellipse cx="-20.398" cy="241.512" fill="none" fill-opacity="0" stroke="#000" stroke-width="2" rx="8.5" ry="8.5"/></g><g><line x1="-192.398" x2="-38.634" y1="241.8" y2="241.529" fill="none" fill-opacity="0" stroke="#000" stroke-width="2"/><polygon fill="#000" points="-31.134 241.516 -41.125 246.534 -38.634 241.529 -41.143 236.534"/><polygon fill="none" fill-opacity="0" stroke="#000" stroke-width="2" points="-31.134 241.516 -41.125 246.534 -38.634 241.529 -41.143 236.534"/></g><text x="-147.858" y="229.8" fill="#000" font-family="sanserif" font-size="12.8" font-style="normal" font-weight="normal" text-anchor="start"><tspan x="-147.858" y="229.8">pad 0 (sink)</tspan></text><rect width="100.186" height="71.452" x="389.822" y="276.666" fill="none" fill-opacity="0" stroke="#a020f0" stroke-width="2"/><g><rect width="100.186" height="71.452" x="689.988" y="345.934" fill="#fff"/><rect width="100.186" height="71.452" x="689.988" y="345.934" fill="none" fill-opacity="0" stroke="#8b6914" stroke-width="2"/></g><line x1="689.988" x2="389.822" y1="417.386" y2="348.118" fill="none" fill-opacity="0" stroke="#e60505" stroke-dasharray="4" stroke-width="2"/><line x1="689.988" x2="389.822" y1="345.934" y2="276.666" fill="none" fill-opacity="0" stroke="#e60505" stroke-dasharray="4" stroke-width="2"/><line x1="790.174" x2="490.008" y1="417.386" y2="348.118" fill="none" fill-opacity="0" stroke="#e60505" stroke-dasharray="4" stroke-width="2"/><line x1="790.174" x2="490.008" y1="345.934" y2="276.666" fill="none" fill-opacity="0" stroke="#e60505" stroke-dasharray="4" stroke-width="2"/><g><ellipse cx="805.6" cy="384.084" fill="#fff" rx="8.5" ry="8.5"/><ellipse cx="805.6" cy="384.084" fill="none" fill-opacity="0" stroke="#000" stroke-width="2" rx="8.5" ry="8.5"/><ellipse cx="805.6" cy="384.084" fill="none" fill-opacity="0" stroke="#000" stroke-width="2" rx="8.5" ry="8.5"/></g><g><line x1="814.1" x2="970.434" y1="384.084" y2="384.112" fill="none" fill-opacity="0" stroke="#000" stroke-width="2"/><polygon fill="#000" points="977.934 384.114 967.933 389.112 970.434 384.112 967.935 379.112"/><polygon fill="none" fill-opacity="0" stroke="#000" stroke-width="2" points="977.934 384.114 967.933 389.112 970.434 384.112 967.935 379.112"/></g><text x="839.408" y="373.9" fill="#000" font-family="sanserif" font-size="12.8" font-style="normal" font-weight="normal" text-anchor="start"><tspan x="839.408" y="373.9">pad 2 (source)</tspan></text><g><line x1="546" x2="492.157" y1="191" y2="198.263" fill="none" fill-opacity="0" stroke="#a020f0" stroke-width="2"/><polygon fill="#a020f0" points="484.724 199.266 493.966 192.974 492.157 198.263 495.303 202.884"/><polygon fill="none" fill-opacity="0" stroke="#a020f0" stroke-width="2" points="484.724 199.266 493.966 192.974 492.157 198.263 495.303 202.884"/></g><g><line x1="546.908" x2="495.383" y1="190.725" y2="268.548" fill="none" fill-opacity="0" stroke="#a020f0" stroke-width="2"/><polygon fill="#a020f0" points="491.242 274.802 492.594 263.703 495.383 268.548 500.932 269.224"/><polygon fill="none" fill-opacity="0" stroke="#a020f0" stroke-width="2" points="491.242 274.802 492.594 263.703 495.383 268.548 500.932 269.224"/></g></svg>